<svg xmlns="http://www.w3.org/2000/svg" viewBox="0 0 985.09 980.23"><defs><style>.cls-1{fill:#fff;}.cls-2{fill:#711112;}</style></defs><g id="Layer_2" data-name="Layer 2"><g id="OCA_Logo" data-name="OCA Logo"><path d="M482.59,900.48c-97.87-1.72-191.72-35.57-271.41-106C139.28,731,93.66,651.72,77.72,557.18c-22-130.37,11-246.54,98.22-346.11C240.17,137.72,321.52,92.6,417.49,76.53c127.77-21.4,243.17,8.85,343.39,91.4,77.41,63.76,125.67,146,142.68,244.8C925,537.49,895.08,650,815,748.13,757.2,818.82,682.9,864.6,594.51,887.36,560.46,896.13,525.78,900.2,482.59,900.48Zm19.2-24.61c15-1.77,41.18-3.13,66.65-8.18,92.82-18.41,170-64.35,229.37-138,79.32-98.3,104.25-210.39,77.11-333.24C856.7,314,813.66,245.2,749.3,190.66c-97.83-82.91-211-111.33-336.42-88.07-89.41,16.58-164,61.1-223,130.25C114.54,321.08,85.13,423.68,99.77,538.4c9.88,77.52,41.89,145.79,94.12,203.78C273,830.05,372.6,873.69,501.79,875.87Z"/><path d="M810.1,799.71c7.69-8.27,14.77-17.25,23.25-24.63,9.33-8.12,22-6.39,32.12,2.72,9.55,8.62,12.14,21.18,5,31.3-6.34,9-14.17,16.95-21.36,25.39-.86-.81-1.42-1.31-1.4-1.33,4.3-5.37,1.62-8.8-2.84-12.42-6.89-5.61-13.43-11.67-20-17.63s-6.51-5.93-13.55-2.26Zm28-23.32c-3.34,2.5-7.16,5.06-10.6,8.05-2.6,2.27-2.57,4.62.41,7.18,9.23,8,18.13,16.27,27.4,24.17,1.25,1.06,4.49,1.44,5.75.59,7.21-4.92,9.24-15.17,3.55-21.7-4.92-5.66-11.14-10.27-17.13-14.89C845.32,778.14,842.17,777.81,838.08,776.39Z"/><path d="M597.08,918.74c6.55-1.93,13-4.14,19.66-5.73,5.73-1.37,11.61-2.68,17.46-2.83,5.14-.13,8.92,3.08,10.06,8.47,1.17,5.58-1.29,9.62-5.72,12.71-1.48,1-3,2-5.58,3.62,8,.42,11.77,5.13,15.35,10.27,1.43,2,3.56,3.63,5.38,5.42.94-2.07,1.89-4.14,2.8-6.13,2.64,4.77,1.79,9-2.46,11.63-4.59,2.88-9.67,2.11-12.53-2.27-2.38-3.62-4.15-7.63-6.47-11.29-3.56-5.6-6.66-6.21-13.43-2.68,1.66,5.59,2.81,11.54,5.31,16.85,1,2.11,5,2.8,8.46,4.57l-23.87,7.16-1.83-1.28c10.92-3.32,5.9-9.79,4.43-15.31-2-7.58-4.56-15-6.67-22.57-1.48-5.28-1.72-11.57-11.29-8.34C596.46,920.25,596.77,919.5,597.08,918.74Zm23.57,17.78c2.51-.72,4.33-1.08,6-1.74,8.22-3.22,10.41-11.28,4.81-17.9-3.8-4.5-8.52-3.15-13-1.54-4.91,1.74-2.4,5.29-1.61,8.24C618,927.72,619.25,931.8,620.65,936.52Z"/><path d="M926.93,669.5c4.52-1.36,8.67-3.22,13-3.71,4-.46,8.25.52,12.38.87l.78-1.8-4.79-6c6.67,1.49,9.14,4.67,8.21,10.24-.87,5.18-3.76,8.25-9.38,7.56-3.68-.45-7.33-1.13-11-1.86-7.76-1.55-10.14-.22-13.13,8,5.34,2.46,10.56,5.6,16.21,7.1,2.46.65,5.81-2.1,9.5-3.6-3.31,7.47-6.69,15.14-10.08,22.81l-2,.35c4-9.1-2.82-10-7.71-12.22-7.69-3.55-15.41-7-23.14-10.47-4.77-2.14-9.8-5.67-13,3.15l-1.06-1.49c.62-1.78,1.13-3.61,1.88-5.34q4.32-9.95,8.79-19.82a39,39,0,0,1,2.32-4.38c4.32-7,10.18-9.8,15.85-7.66,6.11,2.3,8.35,8,6.57,16.68C927,668.71,926.93,669.5,926.93,669.5Zm-7.15,11.93c6.44-10.86,4.67-17.79-4.82-20.57-5.25-1.54-9.35,1.37-12.06,7.85-2.4,5.72,2.28,6.07,5.32,7.58C911.9,678.12,915.72,679.65,919.78,681.43Z"/><path d="M28.23,547.23c14.78,0,26.2,11.57,26.26,26.52.06,14.61-12.53,26.72-27.88,26.81C12.21,600.65,0,588.15,0,573.29S12.28,547.19,28.23,547.23Zm24,25.24c-1-8.07-5-13.11-12.35-13.89a50.21,50.21,0,0,0-29.38,5.88c-5.59,3-7.88,7.86-6.82,14A11.64,11.64,0,0,0,14,588.6a45.89,45.89,0,0,0,31.92-7C48.78,579.84,50.13,575.6,52.18,572.47Z"/><path d="M214.23,888.13a26.33,26.33,0,0,1-27-25.82c-.3-14.89,12.25-28.24,27-28.72,13.55-.43,26.67,12.55,26.87,26.58C241.29,874.75,228.67,887.9,214.23,888.13Zm19.6-35.76a12.86,12.86,0,0,0-17.38-12.53c-8.77,3.24-21.53,20.66-21.89,29.9-.35,8.77,7.88,15.37,16.09,12.91C219.6,880,233.53,861.78,233.83,852.37Z"/><path d="M146.64,839.61l-32.47-34.28A15.92,15.92,0,0,1,116,804.2c4.46,4.95,8,3.31,12.09-.92,6-6.3,12.48-12.12,18.76-18.15,6.74-6.47,6.74-6.47,4.86-15.33,10.16,10.62,20.33,21.25,31.06,32.45l-12,12.77-1.5-1.1c.77-1.5,1.49-3,2.31-4.48,4.49-8,.5-19.59-8.06-22.83a4.53,4.53,0,0,0-3.78.93c-4.1,3.76-8,7.76-12,11.77,4,7.87,10,5.29,16,2.85l.72,1.53q-8.37,8-16.73,16L146,819.1c3.38-5.9,7-11.83-1.1-17.25-4.44,4.18-9.2,8.36-13.48,13-.82.88-.33,4,.6,5.32,7,10,14,11.62,25,6.27a20.29,20.29,0,0,1,2.73-.9c.35.46.71.91,1.07,1.36Z"/><path d="M695.11,924.51c-4.35-5.24-8.82-10-16.38-4.58,2.43,5.58,4.56,11.16,7.34,16.4.7,1.32,3.71,2.54,5.21,2.13,12.54-3.37,16.42-9.6,14.55-22.39-.1-.66.19-1.37,1.82-2.45,2.26,5.72,4.53,11.43,7,17.73L671.85,950a14.72,14.72,0,0,1-.44-2c6.1-2.65,5.59-6.58,3-11.78-4.12-8.33-7.74-16.93-11.22-25.55-2.13-5.28-3.92-10.3-11.75-6l-.09-2.31,40.73-17.83,7.7,15.45L698.37,901q-2-2.25-4.07-4.49c-5.61-6.13-18.31-6-23.33.52-.78,1-.72,3.2-.21,4.52,2,5,4.26,9.83,6.5,14.9,8.76-1.12,8.36-7.69,8.35-14l1.54-.23,9.29,21.12Z"/><path d="M766.29,839.79c4.48-8.27,10.65-11.39,18.86-9.73,11.9,2.42,23.82,4.73,36.88,5.82-6.13-6.66-11.94-13.66-18.6-19.74-1.71-1.56-6.06-.23-11.33-.23l15-12.84,2,.46c-6.06,8.05-.33,12.5,3.9,17.42,6.49,7.52,13,15,19.37,22.63,1,1.19,1.12,3.08,1.64,4.65-1.5.14-3.07.64-4.49.36-14.37-2.76-28.71-5.65-43.06-8.48-1.35-.26-2.75-.28-5.75-.58,7.73,8.74,14.11,16.85,21.56,23.84,2.33,2.18,7.51,1.33,12.11,2L799.23,878.5l-1.94-.48c7.14-9,.65-14.21-4.29-19.85-3.68-4.2-7.31-8.45-10.94-12.7C775.51,837.8,775.52,837.8,766.29,839.79Z"/><path d="M871.36,220.48,862,242.17l7.71-.67c-4.53,4-8.43,5-12.47,1.14-3.68-3.53-4.07-7.5-.76-11.56,2.09-2.57,4.26-5.06,6.42-7.57,4-4.64,3.71-8.87-1.45-13-3.12,2.3-6.13,4.78-9.39,6.87-4.48,2.88-7.87,5.83-2.07,11.49l-2.18.58L834,211.29c5.4,4.55,9,1.24,13-1.87Q856.51,202,866.42,195c4.07-2.86,7.87-5.5,3.18-11.5l2.34-.59c6.18,9.37,12.82,18.47,18.31,28.23,2.21,3.93.92,9-3.51,12.08s-8.61,1.8-12.68-.81C872.72,221.55,871.47,220.56,871.36,220.48Zm-7.13-12c5.83,10.45,13.24,12,19.11,4.56,3.68-4.66,1.1-8.48-1.67-12.2-3.1-4.17-5.74-1-8.31.78C870.34,203.72,867.44,206,864.23,208.44Z"/><path d="M32.34,382.12c6.16-9.73,10.28-12.16,16.54-10,5.49,1.92,8.26,8.19,6.8,17.58a274.41,274.41,0,0,1-6.21,28c.09-7.12-5-7.46-9.6-8.39-8.07-1.62-16.16-3.14-24.19-4.94-4.71-1.06-8.95-1.71-11.43,4.35.63-3.35,1.22-6.71,1.9-10.05,1.21-6.06,2.34-12.13,3.74-18.15,1.73-7.43,5.64-11.19,11.3-11.06,7.19.18,9.15,5.22,10.13,11.12C31.38,381,31.75,381.27,32.34,382.12Zm-1.87,15.55c4.71,1.06,8.29,1.92,11.89,2.67,8.92,1.85,8.81,1.81,10.39-7.35,1-5.68-1.45-9.2-6.52-11-5.75-2-10.77-.09-12.9,5.08C32,390.24,31.51,393.71,30.47,397.67Zm-2.82-.44c4.5-12.51.34-19.39-10.12-18-6.39.87-6.3,6.51-7.32,10.85s3,4.1,5.68,4.7C19.7,395.67,23.54,396.39,27.65,397.23Z"/><path d="M409.88,920.17l18.28,3.9c.21.58.41,1.15.62,1.72-9,.35-10.11,6.58-11.19,13.05-.88,5.28-2.33,10.47-3.43,15.72-2.66,12.65-9.31,17.37-22.19,15.65-14.49-1.93-20.28-9.72-17.53-23.78,1.35-6.88,2.81-13.75,4.46-20.56,1.22-5,3.33-10.14-5.31-11.67l1.42-1.63,24.05,5.19c.28.8.56,1.6.85,2.4-10-3.38-9.87,3.11-11,8.71-1.31,6.68-3,13.27-4.39,19.94-2,9.79,1.39,15.48,10.08,17.32,7.83,1.67,13.77-2.79,15.79-11.89,1.29-5.85,2.57-11.69,3.75-17.56C416.09,927.2,416.05,927.19,409.88,920.17Z"/><path d="M561.38,926.05c-8.16,1-7.22,6.08-6.29,11.39,1.24,7.11,2.31,14.26,3.35,21.42,1.29,8.75,6.28,13.33,13.87,12.56,8.44-.86,13.05-5.88,12.27-14.7a163,163,0,0,0-4.07-25.66c-.75-3-4.8-5.08-8.15-8.38l17.72-2.87c-11.27,9-2.08,19.39-2.72,28.82a8,8,0,0,0,.44,1.8c3.47,18.83-9.27,30.44-27.94,25.51-6.27-1.65-10.06-5.65-11.15-11.93-1.47-8.54-2.86-17.12-3.82-25.73-.6-5.37-1.85-9.35-8.85-8.07l.18-2,24.2-4Z"/><path d="M44.58,625.87C46,634.29,51.36,636,58.1,635.8l.34,1.7-21.53,7.72-1.14-1.09c5.95-4.42,11-9.1,5.48-17-5,1.73-10,3.55-15.13,5.19-3.9,1.26-6.39,3.05-4.14,7.64.37.75.06,1.84.06,2.78l-1.62.39c-3-8.39-5.92-16.79-9.44-26.8,3.83,3.22,5.89,6.27,8.38,6.68,2.73.45,5.88-1.48,8.79-2.5,7.42-2.6,14.8-5.29,22.21-7.9,5.33-1.88,12.79-2.09,6.67-12.66l3.13,1,15.31,42.92-16.07,6-.58-1.31a4.91,4.91,0,0,1,.94-1.4c10-7.4,11.52-14.16,5.06-24.58A5.5,5.5,0,0,0,60,620.57C54.89,622,49.92,624,44.58,625.87Z"/><path d="M286.63,896.27a5,5,0,0,1-.32-1.74c2.69-12.85.74-16.75-11.75-21.59-1.49-.58-4.77.63-5.75,2-2.93,4.21-5.13,8.93-7.7,13.59,6.29,5.91,11.66,3.12,16.89-1.73l1.25,1.25-11.16,20.13-2-.16c2.76-7.49,1.92-13.37-6.58-16.5-3,5.42-6.28,10.65-8.84,16.19-.63,1.36.78,3.87,1.68,5.63.58,1.15,1.94,1.91,3,2.84l-1.07,1.39-23-13,.62-1.44c1.22.31,2.53,1.06,3.65.84,2.09-.41,5.07-.78,5.92-2.21,6.26-10.48,11.9-21.32,18.12-31.81,3.25-5.48-2.11-6.33-4.6-8.82l1.26-1.62,39.72,22c-2.76,5.29-5.33,10.24-7.91,15.18Z"/><path d="M33.26,670.78c3.73,9,8.71,5.79,14.06,3,8-4.23,16.2-8.32,24.55-11.9,5.46-2.34,8.5-4.94,3.95-11.21,4,1.64,15.75,23.74,22,40.46l-14.9,7.64-.83-1.25a9.9,9.9,0,0,1,1.73-2.18c11.12-7.72,6.91-14.72,1.3-24.68-.59-1-3.77-1.55-5.2-1-4.76,1.93-9.26,4.47-13.78,6.73,1.57,7.58,3.64,8.84,14.7,10L60.39,696.59l-1.49-1c5.5-4.85,9.8-9.92,3.5-17.33-5.33,2.56-11.25,4.64-16.16,8.15-2,1.39-1.64,6-2.65,10.3l-11.76-24Z"/><path d="M938.27,555.28l-4-6.45,17.38,2.93.24,1.82c-1.91.68-3.78,1.44-5.72,2-6.39,1.94-10.88,5.8-12.71,12.38-1.42,5.13,1,11.22,5.27,12.6,5.37,1.74,8.73-1.11,11-5.61,2-4.07,3.67-8.32,5.69-12.39,4-8.12,9.66-11.44,16.61-10,7.77,1.64,12.74,8,13.1,16.67.28,7-1.62,11.5-8.3,19.56l4.3,7.3-19.29-3.8c0-.58.05-1.17.07-1.75,1.88-.46,3.77-.88,5.64-1.38,9-2.39,14.43-8.73,15-17.55.38-5.44-2.75-10.45-7.47-11.52-5.27-1.19-8.09,2.06-10.16,6.2-2.49,5-4.53,10.23-7.34,15-3.63,6.18-8.84,8.16-15.26,6.64a15.33,15.33,0,0,1-11.81-13.57C929.8,566.85,932.83,560.73,938.27,555.28Z"/><path d="M795.59,167.94c5.25,6.22,8.55,2.7,12.26-1.16,5.44-5.67,11.28-11,17-16.42s5.85-5.58,3.51-10.74c8.62,8,18.35,17,28.57,26.41l-11.33,12.29c1-5.69,3.49-10.89,2.35-15.12-1.2-4.49-5.82-8.06-9.35-12.56l-13.78,12.94c4.09,6.12,4.61,6.23,12.2,4l-12.15,14.19c2.26-5.82,4.28-11-2.77-15.69l-13,14.14c6.21,10.95,10.23,12.18,28.57,7.47-3,2.88-5,4.78-7,6.61s-4.35,3.77-6.83,5.91l-29.12-30.45Z"/><path d="M944.92,597.85c-3.82.47-7.8.45-11.43,1.57a15.35,15.35,0,0,0-6.73,4.86c-2.15,2.58-1.26,5.11,2.12,6.18q18,5.65,36.07,11.2c5.94,1.83,5-4,7.11-6.45,1.73,3.09-2.66,19.73-7.63,26.82,4-12.31-5.83-11-11.79-13.14-8.16-2.9-16.48-5.38-24.81-7.75-1.93-.54-5.67-.5-6,.35-.94,2.19-1.34,5.46-.31,7.43,1.55,3,4.41,5.31,6.89,7.75a40.33,40.33,0,0,0,4.55,3.38l-.85,1.6-17.93-6.53c4.43-14.51,8.74-28.63,13.23-43.3l17.86,4.47C945.13,596.81,945,597.33,944.92,597.85Z"/><path d="M747.22,914.17c4.86-11.82-1.69-22.06-2.75-32.56-.75-7.36-2.91-14.57-4.11-21.91-.3-1.77.68-3.76,1.07-5.65,1.62.61,3.42.94,4.82,1.87,11.39,7.55,22.62,15.36,34.12,22.74,3.48,2.23,7.67,3.37,12.17,5.28l-18.69,12.47c3-7.33,1.24-11.74-6.2-14.19-1.27-.42-3.17.16-4.46.87-2.89,1.59-5.43,3.88-8.39,5.29-5.75,2.73-5.77,6.91-3.5,11.79,2.38,5.15,6.31,3.21,10.06,1.83l1.06,1.52Zm16.38-34.9-19.08-12.83c1.67,8.33,3,15,4.5,22.44Z"/><path d="M569.49,41.78c-2.45-5.32-2.68-11.84-11.59-11.32-1,5.28-2.21,10.83-2.85,16.46-.13,1.18,1.66,3.32,3,3.8,10.29,3.72,16.67,1,21.93-8.78a3.38,3.38,0,0,1,2.94-1.72c-1.06,5.23-2.11,10.45-3.32,16.46l-41.94-6.9c-.22-.64-.43-1.28-.64-1.92,8.27,2.16,8.85-2.66,9.55-8.2,1-8.38,2.65-16.71,4.27-25,1-5.07.42-8.88-6.57-9.17.38-.59.76-1.18,1.13-1.77l40.18,6.56c-.71,5.51-1.35,10.46-2,15.4l-1.3-.06c-.27-1.15-.59-2.29-.8-3.45-1.59-9.13-8.55-14.4-17.64-13.1a4.25,4.25,0,0,0-2.83,2.6A70.7,70.7,0,0,0,558.77,25c0,1,3.89,3.54,4.83,3.06,3.09-1.56,5.64-4.18,9.29-7.11C571.7,28.26,570.6,35,569.49,41.78Z"/><path d="M934.85,717.93l-12.72,21-1.31-.53c.38-2.39.75-4.79,1.18-7.52-2.09-.59-3.83-1.13-5.59-1.57-5.08-1.27-9.41-.94-11.35,5a12.51,12.51,0,0,1-2.24,3.7c-3.49,4.45-5.13,8.6-.1,13.37s7.93.46,11.33-2.65l1.32,1.5c-3.21,5.3-6.42,10.6-9.07,15-3-5.5-5.33-11-8.63-15.8-6.64-9.72-13.82-19.07-20.68-28.64-1.22-1.69-2-3.73-3.85-7.45,10.28,1.41,18.74,2.51,27.17,3.75s16.67,2.84,25.07,3.71C927.83,721,930.5,719.3,934.85,717.93Zm-38.26,24.89c3.23-5.34,5.93-9.82,9.11-15.09l-22.42-3.18Z"/><path d="M523.19,979.79H496.76c0-.39-.08-.79-.13-1.19a11.23,11.23,0,0,1,3.17-.72c4.22.28,5.35-1.82,5.18-5.69-.51-11.78-.75-23.57-1.27-35.35-.07-1.66-.86-4.47-1.77-4.67-2-.43-5.22-.29-6.24,1-2.75,3.43-4.64,7.56-6.81,11.44a5.5,5.5,0,0,1-2.36,2.82V929.08H531.4c.37,5.23.8,11.15,1.23,17.07l-2,.48a35.06,35.06,0,0,0-2.09-5.8c-1.61-2.82-3.19-5.9-5.58-7.93a8.16,8.16,0,0,0-6.81-1.13c-1.18.4-1.9,3.77-1.89,5.8.05,9.3.33,18.61.71,27.91.23,5.91-2.76,14,10.1,12.3Z"/><path d="M131.49,218.86c4.33-7.74-.29-11.86-5.25-15.92-4.8-3.93-9.62-7.86-14.24-12-4.06-3.64-7.84-7.74-13.86.43,2.86-9.59,7.79-13.58,14.72-13.44,5.79.12,11.57.51,17.36.62,5.52.11,11,0,18.49,0-7.26-5.86-13.14-11.17-19.66-15.52-2-1.3-5.7.07-9.89.29l10.64-12.75,1.71-.13c-3.86,9.23,3,12.5,8,16.78,7.12,6.21,14.37,12.28,21.4,19.34-16,2.51-31.92-.23-48.39,1.37,7.07,5.85,13.87,12.08,21.38,17.31,2.2,1.53,6.37.23,10.86.23-3.85,4.57-7.68,9.09-11.5,13.61Z"/><path d="M198.09,143c-1.59,13.76-9.45,21.2-21.74,21.1-11.73-.11-23.51-11.55-24.55-23.85-1-12.12,6.59-21.58,19.67-24,.13-1.79.28-3.69.5-6.51l12.93,14.52c-2.69-1.29-4.66-2.28-6.67-3.19C171.34,118,165,118.72,161,123s-4.7,10.67-.09,17.12A87,87,0,0,0,175.46,156c5.86,4.93,12.72,3.73,17-1.64,4.1-5.15,2.1-14.65-4.05-16.84-1.83-.66-4.6,1.28-7.93,1.11,5.39-4.75,10.78-9.51,17.37-15.34-5.55,11.9,6.9,14.13,8.86,22.37Z"/><path d="M671.94,85c6.83,2.25,10.24-1.3,12.86-6.6,3.11-6.3,6.25-12.61,9.79-18.67,2.88-4.93,4.59-9.32-2.44-13.17,8.69.32,14,4.62,15.32,11.62,1.77,9.53,3.47,19.07,5.27,28.59a55.11,55.11,0,0,0,1.75,5.63c3.87-7.35,7.75-13.5,10.31-20.16,1.11-2.86-.51-6.78-1-11.21l13.49,6.89c-8.7.32-10.59,7.1-13.53,12.76-4.46,8.55-9,17.08-14.43,25.64-6-15.08-6.53-31.29-11.15-48.2-4.74,9.37-9.34,17.37-12.75,25.84-1.08,2.68,1,6.64,1.81,10.77l-15.51-7.94C671.81,86.22,671.88,85.62,671.94,85Z"/><path d="M361.2,911.48l3.9-3.05,1.49.71L360.77,928l-1.78-.26c-.1-1.21-.22-2.42-.3-3.64-.19-2.87.57-6.31-.76-8.49-2.31-3.81-5.34-7.86-9.1-9.94-4.54-2.51-9.42-.09-12.74,3.75-7.45,8.64-10.72,18.94-10.66,30.24,0,5.72,3,9.72,8.43,11.79,5.81,2.2,11,1,15.49-3,2-1.82,3.61-4.16,6.35-7.4-.58,9.56-12.2,15.53-19.9,14.05-9.91-1.89-17-7.28-19.89-17.27-3.42-12,.32-22.19,9.06-30.33,7.45-6.94,16.65-8.15,25.93-4C354.5,905.15,357.35,908.44,361.2,911.48Z"/><path d="M118.5,782.93c-7,6.72-18,5.38-24.48-1.9-9.5-10.61-8.13-26.65,3.11-36.48,11.68-10.22,28.39-10.31,37.19.53,3.34,4.12,4.81,9.76,7.52,15.51h4.36l.73,1.24-15.35,12.55-1.29-.91a43,43,0,0,0,2.51-4.74c1.47-3.76,3.62-7.53,3.92-11.41.61-8.07-5.13-13.17-13.13-12.67-10.22.63-26.27,13.26-29.58,23.08-1.7,5,.41,8.87,3.56,12.38,4.13,4.61,9.44,5.65,15.29,4.48C114.77,784.2,116.62,783.49,118.5,782.93Z"/><path d="M476.61,962.08c-.66,5.07-1.06,10.2-2.17,15.17-.27,1.23-2.77,2.24-4.43,2.78-1.29.43-2.88.06-4.31-.08q-18.13-1.83-36.29-3.71c.14-.88.22-1.59.25-1.59,7,.43,7.59-4.48,8-9.55.8-9.27,1.59-18.53,2.45-27.79.74-7.92.78-7.92-6.58-12.19L458.63,927l1.18,1.52c-11.17-.17-9.21,7.37-9.71,13.57-.74,9.27-1.47,18.54-2.51,27.78-.5,4.41,1.53,5.75,5.42,6.32,10.41,1.52,15.16-1,19.75-10.63.68-1.42,1.55-2.75,2.33-4.12Z"/><path d="M677.58,41c-6.35-1-8.79,2.78-10.49,7.65-2.17,6.23-4.28,12.49-6.73,18.61-3.81,9.53-12.32,12.5-23.19,8.34s-14.79-11.08-11.42-21c2.26-6.64,4.74-13.2,7.21-19.76,1.71-4.55,3.82-9.1-4.52-10.91l1.92-1.59,21.42,7.8c.16.69.33,1.39.5,2.09-8.26-3.71-9.16,1.79-10.79,6.67-2,6.06-4.39,12-6.45,18.06-2.7,7.92-.61,12.89,6.33,15.57,7.21,2.78,12.84.43,16-7.13,2.47-5.89,4.36-12,6.71-18,1.94-4.88,2.19-9.2-3.49-12.26l1.07-1.41,15.75,5.48Z"/><path d="M873.67,261.89l-7.39-2L881.45,251l1.32,1.16c-1.13,1.68-2.29,3.34-3.39,5-4.71,7.22-3.84,15.77,2,21.58,3.21,3.2,7.32,4.42,10.57,1.72,2.18-1.8,3.54-6,3.33-9-.35-4.85-2.63-9.53-3.47-14.38-1.43-8.15,1.34-13.23,7.82-15.5s13.38-.16,17,6.45c2.3,4.18,3.23,9.12,5.18,14.9l4.36,1.78-13.27,8-1.25-1,3.1-5.27c3.7-6.33,4-13.75-.53-17.79a12.94,12.94,0,0,0-9.75-2.85c-1.79.34-3.78,5-3.83,7.83-.06,3.77,1.52,7.61,2.6,11.37,3.19,11.15.41,18.22-8.27,20.68-8,2.27-18.16-4.6-20.33-14.05C874,268.66,874,265.52,873.67,261.89Z"/><path d="M350.7,21.22c1.09,3.28,2.61,7.86,4.14,12.44l-1.42,1C352,33.18,350.54,31.7,349,30.3c-5.15-4.77-11.79-6.24-17.13-3.64-3.78,1.84-6.65,4.64-5.72,9.23.88,4.36,4.38,5.83,8.43,5.8,5,0,9.91-.51,14.87-.56,5.84-.06,10.6,2,12.75,7.88s1.32,11.38-3.58,15.8-10.53,6.51-17.06,5.67c-5.84-.76-5.82-.92-9.87,5.08L326.8,59.21,328.66,58a51.65,51.65,0,0,0,4.09,5.15c5.84,5.74,12.82,6.72,19.89,3,4.05-2.13,6.53-5.29,5.46-10-1.12-5-5-6.12-9.53-5.92s-9.08.68-13.62.65c-7.74,0-12-3.64-13.52-11a13.11,13.11,0,0,1,8-14.55c3.7-1.44,8-1.25,12-1.95C344.17,22.89,346.83,22.13,350.7,21.22Z"/><path d="M70.25,261.9c-4,0-8.25-.66-12.08.25-2.31.54-4,3.53-6,5.42,1.65,1.58,3,3.66,5,4.65,7.36,3.74,15,7,22.36,10.68,5.07,2.5,10.1,6.74,13.9-2.85L94.46,282,83.94,303.59l-1.62-.65,2.32-7-18.87-9c-4.48-2.14-8.88-4.45-13.46-6.32-1.83-.75-5.62-1.12-5.82-.6-.91,2.28-1.86,5.48-.89,7.38,2,3.89,5.22,7.16,7.46,11.82L38,291.11,55.57,254.2l15.68,6.38Z"/><path d="M933.54,322.23,950,317.51c4.48,12.93,8.85,25.56,13.37,38.62l-15.73,6.42-1-1.43a26.61,26.61,0,0,0,3.74-3c2.43-2.74,5.4-5.32,6.79-8.55,1.9-4.41-1.24-7.48-5.71-6-10.39,3.47-20.81,6.9-30.94,11-2.11.86-3,4.69-4.75,7.62l-7.44-21.4c.48-.55.95-1.11,1.43-1.67,2.11,9.43,7.24,6.47,12.39,4.56,8.33-3.08,16.81-5.78,25.14-8.85,1.75-.64,4.63-2.64,4.44-3.25-.65-2.18-2-4.77-3.84-5.82-2.38-1.34-5.49-1.48-8.33-1.88a42.54,42.54,0,0,0-5.76,0Z"/><path d="M271.63,51.58c.51-1.59,1.05-3.25,2.05-6.32l7.81,14.6-1.36,1c-2.14-1.44-4.21-3-6.43-4.3-5.93-3.48-13.38-3.42-17.16,1.1a12.17,12.17,0,0,0-2.37,9.3c.41,1.82,4.75,3.92,7.25,3.82,5.29-.2,10.53-1.76,15.8-2.76,5.8-1.09,10.73.29,14,5.49,3.4,5.47,3.79,11.61-.84,16a33.86,33.86,0,0,1-14.56,8.26c-4.4,1.07-8.93.12-9.7,8-3.22-6.48-5.63-11.31-8-16.15l1.24-1c1.49,1.12,3,2.26,4.48,3.36,6.82,5,14.23,5.21,20.68.47,3.66-2.69,5.57-6.17,4.05-10.75-1.58-4.74-5.56-5.19-9.66-4.58-4.28.64-8.45,2-12.72,2.56-10.19,1.43-15.6-2-17.16-10.56-1.35-7.33,4.7-15.15,13.21-16.78C265,51.74,267.91,51.83,271.63,51.58Z"/><path d="M411,53.66l-24.58,4.88c2.88-2.78,6.06-4.46,6.73-6.85.75-2.69-.73-6-1.31-9.06-1.5-7.9-2.89-15.83-4.66-23.67-.42-1.88-2.39-5-3.25-4.89-2.18.32-5.07,1.7-6,3.5-2,4-3,8.46-5.24,13-.78-5.35-1.57-10.69-2.43-16.59l40.36-7.82c1.37,5.59,2.7,11,4,16.48l-1.58.69a31.32,31.32,0,0,0-2.44-4.22c-2-2.55-3.9-5.41-6.48-7.22-1.54-1.07-4.58-1-6.43-.22-.94.4-1.27,3.57-1,5.34,1.49,9,3.41,17.84,4.9,26.8C402.56,49.19,403.38,54.2,411,53.66Z"/><path d="M929.2,415.48c-1.8-8.19-3.56-16.16-5.32-24.14l1-.21c1.74,2.19,3.66,6.34,5.19,6.21,5-.45,10.67-1.33,14.64-4.11,6.72-4.71,12.48-10.86,18.33-16.71,1.59-1.6,2.08-4.3,3.69-7.86,1.81,8.19,3.4,15.34,5,22.49l-1.39.48c-.88-1.64-1.77-3.27-3.38-6.22l-17.16,15.7c6.1,1.61,11,3.06,16,4.16,5.61,1.24,5.68-3.16,7.49-7,1.22,5.45,2.44,10.9,3.71,16.61-13.94-9.67-28.07-13.2-43.53-7.86C931.5,407.68,930.87,411.9,929.2,415.48Z"/><path d="M128.33,225.54c-3.52,5.51-7.26,11.39-11,17.26l-1.33-.58,1.3-5.93c-9.37-4.81-11.6-4.41-16.57,3.9-1.84,3.08-4.5,7.28-3.66,10,1.91,6.27,5.06,6.49,14.05,2-3.64,5.75-6.6,10.44-9.56,15.14.54-7.37-4.47-11.79-7.87-16.85-5.76-8.59-11.78-17-17.52-25.62-.9-1.35-.88-3.31-1.29-5,1.56-.14,3.18-.63,4.67-.37,12.41,2.13,24.76,4.58,37.2,6.52C120.27,226.59,124,225.77,128.33,225.54ZM82,228.88c4.48,6.51,7.89,11.49,11.81,17.19,3.06-4.77,5.58-8.69,8.65-13.49Z"/><path d="M486.63,17l1.5-17c5.74.38,11.2.86,16.67,1.07,6.2.24,12.41.28,18.62.31,4.05,0,6.09,1.59,5.75,6-.28,3.65,0,7.35-.93,11.52-.68-1.42-1.37-2.83-2-4.27-1.09-2.42-1.59-5.41-3.34-7.15S518,5,515.52,3.84c-.85,2.13-2.31,4.23-2.45,6.42-.65,9.68-1,19.39-1.33,29.1-.2,5.4-.14,5.4,6.56,9.1l-23-1.28c9.8-1.1,7-8.4,7.26-13.9.44-8,.91-16.09,1.1-24.15.05-1.83-.77-5.12-1.61-5.26-2.17-.37-5.1,0-6.77,1.27-2.15,1.68-3.49,4.48-4.94,6.94a41,41,0,0,0-2.23,5.27Z"/><path d="M76.54,319.59q-3.2,9.72-6.43,19.53l-1.21-.06-.58-6c-9.6-2.55-12.16-1.32-14.93,7.78-1,3.36-2.67,7.67-1.43,10.32,2.73,5.79,7.31,5.39,14.05.24-1.75,5.17-3.49,10.34-5,14.86-3.63-4.37-6.57-8.76-10.33-12.29-8-7.49-16.48-14.48-24.64-21.81-1.21-1.09-1.77-2.9-2.63-4.37,1.55-.61,3.07-1.64,4.66-1.76,13-1,26-1.67,39-2.84C70,322.94,72.73,321.09,76.54,319.59ZM53.31,332.88l-20.65,1.86L48.21,348.1Z"/><path d="M257.2,109.17l-16.71,11.12c.23-3.28,1.59-7.11.37-8.28-3.31-3.2-7.34-7.23-12.57-2.2a18.77,18.77,0,0,1-5.13,3.44c-4.72,2.15-5.56,5.56-3.82,10.07,1.92,5,5.53,3.88,9.24,2.66.22-.07.61.36,1.66,1l-14.78,10c4.31-13.42-2.1-25.12-3.32-37.31-.36-3.68-1.52-7.27-2-10.94-.25-2,.23-4.09.38-6.14,2,.78,4.19,1.24,6,2.38,10.07,6.49,20,13.27,30.08,19.65C249.58,106.57,253.17,107.51,257.2,109.17ZM213.31,93.51c1.76,8,3.06,13.86,4.5,20.41l13-8.94Z"/><path d="M476.89,46.92l-19.7,1.49c1.77-2.55,4.78-5.12,4.31-6.53-1.37-4.09-2.19-9.8-9.1-8.48a23.73,23.73,0,0,1-6.19.2c-5.49-.41-9.26,2.07-9,7.43.13,2.76,3.36,5.37,5.33,8.27l-15.1,1.4c9.63-9.91,10.22-23,15.16-34.3,1.4-3.2,2-6.74,3.37-10,.8-1.89,2.33-3.46,3.53-5.18,1.27,1.46,2.87,2.75,3.74,4.42,5.65,10.8,11,21.75,16.76,32.49C471.63,41.2,474.29,43.68,476.89,46.92ZM447.62,13.68l-1.56.22c-1.87,5.67-3.73,11.33-5.79,17.61l15.86-.78Z"/><path d="M796.64,110.19c-7.71-1.45-7.75-1.46-10.11,6.46-2.44,8.19-4.8,16.4-7.67,26.22,9.47-5.31,17.44-9.59,25.21-14.2,5.06-3,3.63-6.66-.49-10.2l1.8-1.2,12.56,10.38c-4.44,1.42-8.76,2.21-12.51,4.11-10.49,5.34-20.72,11.19-31.12,16.7-1.43.75-3.28.69-4.93,1-.11-1.75-.7-3.65-.24-5.23,3.45-11.88,7.29-23.65,10.59-35.57.94-3.4.51-7.17.76-11.6Z"/><path d="M58.69,722.11c4,8.35,8.58,5.21,13.53,2,7.82-5,15.73-10,23.89-14.4,5.29-2.87,7.87-5.87,4.17-12a82,82,0,0,1,13.78,21.95c-6.48-4.7-6.49-4.72-13.92-.24-8.32,5-16.56,10.17-25,15-3.87,2.23-6.67,4.36-3.26,9.07.33.47-.07,1.47-.3,4.2l-14.3-23.63Z"/><path d="M900.75,322.21l-9.77-21,.95-.51c2,1.56,4,4.18,6.13,4.37,2.36.21,4.94-1.77,7.38-2.88,6.95-3.18,13.76-6.67,20.84-9.53,5-2,9.06-4,5.39-10.94l1.89,0,9.65,20.64-.94,1.89c-3.89-9.18-8.78-4.57-13.47-2.45-7,3.15-13.89,6.37-20.87,9.48-4.56,2-9.82,3.57-5.14,11Z"/><path d="M744.33,129.1l-20.2-13.31.69-1.32,6.86,2.39L749.42,90.3c2.79-4.17,7.68-8.31-1.91-12.63l2.67-.93,19.05,12.52-.64,1.44-6.49-2.41c-7,10.62-14.37,21.33-21.12,32.4C740.2,122,742.72,125.26,744.33,129.1Z"/><path class="cls-1" d="M501.79,875.87C372.6,873.69,273,830.05,193.89,742.18c-52.23-58-84.24-126.26-94.12-203.78-14.64-114.72,14.77-217.32,90.07-305.56,59-69.15,133.63-113.67,223-130.25,125.42-23.26,238.59,5.16,336.42,88.07C813.66,245.2,856.7,314,874.92,396.48c27.14,122.85,2.21,234.94-77.11,333.24-59.4,73.62-136.55,119.56-229.37,138C543,872.74,516.76,874.1,501.79,875.87ZM805.82,654c-43,19.28-85.55,36.38-130.62,50.68,2.92-9.91,5.7-18.14,7.7-26.56,1.21-5.11,4-7.36,8.77-9.1q46.1-16.87,92-34.38a39.87,39.87,0,0,0,10.6-6.26c21.85-17.63,31.2-41.71,34.68-68.64,3.83-29.61,1.39-59.18-1.11-88.73-.34-4-.82-7.93-1.27-12.29-199.77,123.67-414,161.05-643.66,114.15.45,4.44.74,8.52,1.29,12.57,5.13,37.4,18.82,71.13,43.42,100.06,2.38,2.8,5.14,5.73,8.35,7.29,25.29,12.26,51.67,21.45,79.46,26,17.13,2.81,34.39,4.71,52.34,7.12-2.13,7.19-4.51,14.41-6.35,21.75-1,4-3.19,4.83-6.77,4.41-23.64-2.84-47.31-5.42-70.92-8.52-8.95-1.17-17.74-3.48-27.94-5.54,1.87,2.74,2.93,4.41,4.11,6a152.07,152.07,0,0,0,44.34,40.35c11.49,6.8,23.48,14.25,36.21,17.11,19.48,4.39,39.74,6.15,59.76,7.13,80.34,3.91,159.86-3.34,238.39-20.49,19.78-4.32,40.39-8.14,58.36-16.84C747.47,746.71,783.4,707.28,805.82,654ZM239.36,568.07c80.35,7.16,158.44,14.13,236.94,3.49C554.48,561,628.62,537,700.76,506.15c-27.68-7.6-48.07-20.23-70-43.7-27.76-29.74-48-64.34-65-101-5.83-12.53-11.08-25.32-16.59-38-.64.15-1.15.12-1.4.36q-2,1.92-3.93,4c-15.73,16.9-32.7,32.36-52.11,45-37.2,24.22-77.12,33.73-120.84,22-8.08-2.17-16-5.09-24.59-7.87C336.5,462.05,295.07,518.34,239.36,568.07ZM763.7,315.33a24.91,24.91,0,0,1-3.46-2.31c-15.91-15.94-31.71-32-47.73-47.83-3.94-3.9-6.26-8.22-6-13.7.18-3.66.79-7.3,1.28-10.94,3.55-26.51-17.71-51.85-35.41-63.4-2.25-1.47-6-.64-9-.87-.2,3.11-1.29,6.48-.48,9.3a147.83,147.83,0,0,0,35.57,61.75c1.61,1.68,2,4.51,3.63,8.39-3.17-1-4.22-1.11-5-1.62-6.76-4.36-13.38-9-20.25-13.17-10.11-6.19-16.09-15.8-21.43-25.8-3.48-6.53-5.43-13.89-9-20.35-12.52-22.6-31.32-37.6-56.34-44.33-2.54-.69-6.1.5-8.41,2-.79.51.35,4.92,1.44,7.14a53.56,53.56,0,0,0,6.31,9.92c9.85,12.26,20.32,23.92,33.8,32.42q14.69,9.27,29.36,18.54c2.75,1.75,5.07,3.73,2.64,7.27-.67.09-1.17.33-1.46.17-19.92-10.72-41.43-17.26-62.74-24.45-4.69-1.59-9.32-6.32-11.8-10.8-3.75-6.77-5-14.83-8.31-21.93-11.29-24.53-31.63-37.84-57-44.11-3.75-.92-8.14.75-12.23,1.23,1.56,3.75,2.46,8,4.79,11.18,16.71,22.91,34.87,44.29,62.26,55.23,1,.38,1.35,2.22,2,3.39-1,.43-2.09,1.35-3,1.22q-20.16-2.81-40.28-5.91c-5-.78-8.48-2.45-10.42-8.58C513,172,504.73,161.75,494.46,153.89c-15.88-12.14-34.43-17.42-54.32-17.53a85.73,85.73,0,0,0-20.63,1.91c-6.08,1.47-6.39,5.59-1.27,9C438,160.68,458.88,172,481.49,179.77c8.36,2.89,17,5,25.35,7.91,1.47.5,2.31,2.86,3.45,4.36-1.17.54-2.33,1.5-3.52,1.56-10.06.48-20.21,1.74-30.17.86-8.59-.76-19.17-1.52-25-6.65-17.74-15.57-38-23.57-60.82-25.76-12.75-1.21-25.74-1.81-38,3-3.69,1.46-8.66,4.16-9.54,7.29-1.55,5.49,4.58,6.16,8.43,7.81.38.16.68.51,1.06.63,13,4,25.71,9.65,39,11.57,16.81,2.44,34.07,1.79,51.12,2.63,1.67.08,3.28,1.26,4.92,1.93-1.41,1.14-2.64,2.89-4.24,3.33-16.31,4.45-32.7,8.62-49,13-10,2.69-20.36,2-28.48-3.37-15.69-10.44-32.23-17.13-51-15.71-9.65.73-19.16,4.11-28.55,6.9-2.05.6-4.24,3.6-4.63,5.8-.21,1.2,3,3.5,5.05,4.49a36,36,0,0,0,9.39,3c13.53,2.36,27,5.61,40.68,6.35,10.55.57,21.27-2.21,31.95-3.22,1.66-.16,3.47,1.14,5.21,1.77-.7,1.13-1.16,2.93-2.15,3.28-12.73,4.61-23.61,14.6-38.61,12.73-7.07-.89-14.56.52-21.37-1.13-12.74-3.08-24.87-9.2-37.71-11.23-25.09-4-47.71,2.91-66.4,20.72-1.74,1.65-4,5.34-3.41,6.33a13.19,13.19,0,0,0,7.17,5c3.29.9,7,.21,10.45.53a148.82,148.82,0,0,0,57.37-6c14.56-4.37,29.25-8.66,44.78-8,2.47.1,5-.52,7.43-.81l.74,1.52a24.36,24.36,0,0,1-3,3.16c-11.86,8.63-23.72,17.25-35.71,25.7a16.63,16.63,0,0,1-6.28,2.25c-5.25,1-10.53,1.94-15.84,2.58a52.07,52.07,0,0,1-9.75.16c-3.26-.25-6.48-1.46-9.72-1.46-26.68,0-50.24,8.34-69.7,26.89a95.41,95.41,0,0,0-11.81,14.35c-1.19,1.7-1.59,5.06-.68,6.77.79,1.48,4.09,2.61,6,2.31,12-1.84,24-3.5,34.77-9.85C227.93,305,245.15,294.8,262.58,285c5.29-3,10.83-6.65,18.23-4.66-.73,1.78-.91,3.11-1.65,3.9-8.21,8.73-16.43,17.45-24.84,26-2.15,2.18-4.93,3.75-7.51,5.47-10.25,6.84-20.5,13.67-30.84,20.37-1.62,1.06-3.68,1.46-5.56,2.08-10.95,3.61-22.89,5.49-32.66,11.12-24.4,14.06-42.92,34.18-53.83,60.57-2.12,5.12-4.18,10.48-4.9,15.91-.85,6.35,3.4,9,8.62,5.8,9.85-6.07,20-11.91,29-19,16.73-13.1,29.94-29.64,42.21-46.84,9.64-13.53,19.61-26.7,33.35-36.41,1.95-1.38,4.51-1.92,6.79-2.85l1.1,1.89c-1.51,2.38-3.11,4.71-4.5,7.16-9.12,16.11-18.13,32.29-27.3,48.37-6.17,10.81-8.79,23.46-18.81,32.36-5.24,4.66-9,11.41-12.26,17.78-10,19.36-15.8,40.05-15.48,61.91.2,13.54,1.78,27.11,3.6,40.55.48,3.51,4.17,6.59,6.39,9.86,2.84-3,6.61-5.61,8.39-9.19,10.92-22,21.3-44.29,25.2-68.8a289.47,289.47,0,0,0,3-33.3c.41-9.83-2.07-20.12,0-29.47,4.24-19,15-35.51,24.89-52.15.54-.91,2.25-1.13,3-1.46,0,11,0,21.5,0,32,0,.74-.72,1.46-1.05,2.21-4.57,10.52-10.37,20.69-13.45,31.63-6.81,24.19-5.47,48.27,5.14,71.41a82.79,82.79,0,0,0,6.45,11.95c2.47,3.64,5.43,2.71,7.09-.88a101.9,101.9,0,0,0,5.28-13.8c3-10,8.28-20.24,7.78-30.14A315.48,315.48,0,0,0,244.85,399c-4.5-18.8-5.88-37,.2-55.4,1.8-5.46,2.94-11.55,6.2-16,14-19.23,30.71-36.1,48.83-51.51,1.23-1,3.29-1.09,5.38-1.73C299,288.78,293.6,302.5,287,315.62c-13.26,26.24-19.66,53.72-17,83.09.23,2.53,2.09,4.92,3.19,7.37,2.48-1.22,6-1.79,7.24-3.77C286,393,291.38,383.48,296,373.66c6.78-14.39,8.07-30.16,9.84-45.7.74-6.5,1.35-13.25.44-19.65-1.37-9.58-4.34-19,2.47-27.73.48-.62.48-1.6.92-2.29,3.95-6.23,6.79-13.81,12.2-18.31,8.62-7.17,18.87-12.43,28.61-18.2,4.12-2.44,8.71-4.1,13.09-6.12l1.94,1.65c-1.59,3-2.74,6.37-4.87,8.91-2.91,3.46-6.89,6-9.85,9.4-18.22,21-29.58,44.31-23.69,73.09.52,2.55,2.61,4.79,4,7.17,2.25-1.63,5.07-2.83,6.62-5,3.76-5.16,6.78-10.85,10.35-16.15,12.75-18.93,17.79-40.26,19-62.57.8-15,5.42-22.29,19.42-27,1.56-.53,3-1.35,4.6-1.81,16.42-4.84,32.84-9.67,49.29-14.38.93-.26,2.76.27,3.11,1a3.55,3.55,0,0,1-.7,3.26,10.28,10.28,0,0,1-4.2,2.41c-18.79,5.44-33.67,16.61-45.31,31.92-7.48,9.85-14.4,20.3-15.24,33.35-.38,5.86,3.15,8.77,7.89,5.83a201.31,201.31,0,0,0,21.83-15.22c13.3-10.89,20.47-26.35,28.61-40.93,7.15-12.8,17.71-23.2,31.27-25.41a234.67,234.67,0,0,1,73.87.09,14.89,14.89,0,0,1,3.43,1.48,127.9,127.9,0,0,1-24.43,9.1c-30.71,8.07-58.64,21.65-83.42,41.52-2.19,1.76-3.47,4.65-5.18,7,3,1.52,6,3.15,9.05,4.51a5.42,5.42,0,0,0,3-.17c10.59-2.51,21.37-4.44,31.71-7.76,18.6-6,35.65-15.11,46.75-31.84,5.4-8.14,11.69-13.74,21.14-15.49,8.2-1.52,16.9-4.82,24.65-3.38,17.74,3.27,35,8.91,52.47,13.76,1.38.39,2.38,2.16,4.42,4.1-4.42,1.38-7.75,3.64-10.5,3.08A144.63,144.63,0,0,0,571,229.28c-20,2-37.61,8.93-51.48,23.9-1.39,1.5-3.13,4.5-2.52,5.59.94,1.71,3.69,3.22,5.79,3.38,19.57,1.55,39.27,2.17,57.58-6.26,12.1-5.57,23.24-13.19,35.2-19.13,6.08-3,13.17-6.37,19.51-5.86,6.91.54,13.75,4.9,20.15,8.44a383.28,383.28,0,0,1,60.72,41.5c1,.84,1.27,2.77,1.44,4.24,0,.43-1.58,1.62-2.21,1.48-7.46-1.75-15.07-3.14-22.27-5.7-10.18-3.6-19.72-9.52-30.12-11.95-28.19-6.57-56.16-3.3-83.49,5.49-2.6.83-4.35,4.29-6.5,6.53,2.28,1.82,4.3,4.49,6.89,5.3,9,2.84,18.27,5,27.42,7.47,26.36,7.07,52.89,9.4,79.3.87,10.23-3.31,20.19-2.29,30.35-1.27,1.25.12,2.42,1.16,3.63,1.77-1,1.12-1.72,2.88-2.91,3.26-8,2.58-15.91,5.46-24.09,7.12-24.44,5-44.84,16.44-60.54,36-3.14,3.91-2.75,6.59,1.55,8a16.53,16.53,0,0,0,6.11.84c30.3-2.37,51.87-18.66,69.72-42.16,4.13-5.45,12.65-7.72,19.42-10.86,1.27-.59,4.42,1.16,5.73,2.66,9.48,10.91,18.95,21.84,27.93,33.16,5.7,7.17,10.55,15,16.54,23.66-7.33.73-11.65-2.06-15.34-5.91-5.1-5.32-9.36-11.58-15-16.19-9.67-7.9-21.41-9.22-33.44-7.34-2.12.33-3.94,2.55-5.91,3.9,1.38,1.93,2.35,4.51,4.21,5.69,7.3,4.67,14.63,9.42,22.44,13.11a67.81,67.81,0,0,0,17.64,5c15.55,2.58,29.88,7.42,36.71,23,8.12,18.52,15.06,37.56,22.71,56.29.82,2,3,3.47,4.57,5.18.67-2.3,1.75-4.58,1.9-6.91.13-2-.76-4.05-1.28-6.05a276.57,276.57,0,0,0-22-57.73c-3.37-6.51-3.68-13.36.58-19.84,7.09-10.79,8.59-22.9,6.75-35.18-.94-6.29-4.18-12.3-6.86-18.21-.66-1.46-3.37-3-4.83-2.78s-3.32,2.55-3.67,4.24c-2.67,12.79-3.8,25.67-.56,38.57,1.06,4.22,2.41,8.37,3.21,12.63.29,1.56-.62,3.33-1,5-1.35-1-3-1.72-4-3a66.53,66.53,0,0,1-6.08-9.29c-4.43-8.54-13-15.34-11.54-26.41.6-4.67,1.45-9.31,2.18-14,3.22-20.67-1.12-39.63-14.54-55.67-5.44-6.5-12.74-11.69-19.9-16.4-4.44-2.92-9.28.54-7.92,5.06,3.37,11.26,6.15,22.93,11.33,33.35,5.85,11.75,14,22.4,21.33,33.37C764.57,304.88,765.22,309.52,763.7,315.33Zm30.69,145.92c-41.36-20.57-82.7-38.21-121-61-38.09-22.65-73.13-50.44-110-76.35.61,1.85,1,3.2,1.5,4.51C574,353,585.11,376.51,599.19,398.6c26.29,41.25,59.87,74.46,105.26,94.35a16.94,16.94,0,0,0,11.15.73c14.68-5,29.25-10.35,43.59-16.24C770.82,472.67,782.06,467,794.39,461.25Z"/><path class="cls-1" d="M838.08,776.39c4.09,1.42,7.24,1.75,9.38,3.4,6,4.62,12.21,9.23,17.13,14.89,5.69,6.53,3.66,16.78-3.55,21.7-1.26.85-4.5.47-5.75-.59-9.27-7.9-18.17-16.22-27.4-24.17-3-2.56-3-4.91-.41-7.18C830.92,781.45,834.74,778.89,838.08,776.39Z"/><path class="cls-1" d="M620.65,936.52c-1.4-4.72-2.7-8.8-3.81-12.94-.79-3-3.3-6.5,1.61-8.24,4.52-1.61,9.24-3,13,1.54,5.6,6.62,3.41,14.68-4.81,17.9C625,935.44,623.16,935.8,620.65,936.52Z"/><path class="cls-1" d="M919.78,681.43c-4.06-1.78-7.88-3.31-11.56-5.14-3-1.51-7.72-1.86-5.32-7.58,2.71-6.48,6.81-9.39,12.06-7.85C924.45,663.64,926.22,670.57,919.78,681.43Z"/><path class="cls-1" d="M52.18,572.47c-2,3.13-3.4,7.37-6.27,9.18a45.89,45.89,0,0,1-31.92,7A11.64,11.64,0,0,1,3.63,578.49c-1.06-6.17,1.23-11.06,6.82-14a50.21,50.21,0,0,1,29.38-5.88C47.17,559.36,51.15,564.4,52.18,572.47Z"/><path class="cls-1" d="M233.83,852.37c-.3,9.41-14.23,27.6-23.18,30.28-8.21,2.46-16.44-4.14-16.09-12.91.36-9.24,13.12-26.66,21.89-29.9A12.86,12.86,0,0,1,233.83,852.37Z"/><path class="cls-1" d="M864.23,208.44c3.21-2.43,6.11-4.72,9.13-6.86,2.57-1.82,5.21-5,8.31-.78,2.77,3.72,5.35,7.54,1.67,12.2C877.47,220.44,870.06,218.89,864.23,208.44Z"/><path class="cls-1" d="M30.47,397.67c1-4,1.56-7.43,2.86-10.58,2.13-5.17,7.15-7.11,12.9-5.08,5.07,1.78,7.5,5.3,6.52,11-1.58,9.16-1.47,9.2-10.39,7.35C38.76,399.59,35.18,398.73,30.47,397.67Z"/><path class="cls-1" d="M27.65,397.23c-4.11-.84-7.95-1.56-11.76-2.41-2.68-.6-6.7-.38-5.68-4.7s.93-10,7.32-10.85C28,377.84,32.15,384.72,27.65,397.23Z"/><path class="cls-1" d="M763.6,879.27,749,888.88c-1.5-7.45-2.83-14.11-4.5-22.44Z"/><path class="cls-1" d="M896.59,742.82l-13.31-18.27,22.42,3.18C902.52,733,899.82,737.48,896.59,742.82Z"/><path class="cls-1" d="M82,228.88l20.46,3.7c-3.07,4.8-5.59,8.72-8.65,13.49C89.9,240.37,86.49,235.39,82,228.88Z"/><path class="cls-1" d="M53.31,332.88l-5.1,15.22L32.66,334.74Z"/><path class="cls-1" d="M213.31,93.51,230.78,105l-13,8.94C216.37,107.37,215.07,101.48,213.31,93.51Z"/><path class="cls-1" d="M447.62,13.68l8.51,17.05-15.86.78c2.06-6.28,3.92-11.94,5.79-17.61Z"/><path class="cls-2" d="M805.82,654c-22.42,53.32-58.35,92.75-108.91,117.25-18,8.7-38.58,12.52-58.36,16.84-78.53,17.15-158,24.4-238.39,20.49-20-1-40.28-2.74-59.76-7.13-12.73-2.86-24.72-10.31-36.21-17.11A152.07,152.07,0,0,1,259.85,744c-1.18-1.57-2.24-3.24-4.11-6,10.2,2.06,19,4.37,27.94,5.54,23.61,3.1,47.28,5.68,70.92,8.52,3.58.42,5.78-.43,6.77-4.41,1.84-7.34,4.22-14.56,6.35-21.75-18-2.41-35.21-4.31-52.34-7.12-27.79-4.55-54.17-13.74-79.46-26-3.21-1.56-6-4.49-8.35-7.29C203,656.53,189.28,622.8,184.15,585.4c-.55-4-.84-8.13-1.29-12.57,229.69,46.9,443.89,9.52,643.66-114.15.45,4.36.93,8.32,1.27,12.29,2.5,29.55,4.94,59.12,1.11,88.73-3.48,26.93-12.83,51-34.68,68.64a39.87,39.87,0,0,1-10.6,6.26Q737.73,652,691.67,669c-4.75,1.74-7.56,4-8.77,9.1-2,8.42-4.78,16.65-7.7,26.56C720.27,690.34,762.86,673.24,805.82,654ZM375.07,752.59c3,.13,5.25.29,7.48.32,48,.74,95.55-3.43,142.87-11.27a1026.31,1026.31,0,0,0,126.87-29.73c2.4-.72,5.8-2.08,6.46-3.94,3.4-9.66,6.07-19.58,9.36-30.65-3.17.8-5.1,1.23-7,1.77-18.91,5.4-37.73,11.13-56.73,16.17-42.06,11.16-84.53,20.6-127.86,24.94-29,2.9-58.24,3.68-87.35,5.58-2.37.15-6.15,1-6.71,2.54C379.61,736,377.59,744,375.07,752.59Z"/><path class="cls-2" d="M239.36,568.07c55.71-49.73,97.14-106,106.93-181.06,8.62,2.78,16.51,5.7,24.59,7.87,43.72,11.7,83.64,2.19,120.84-22,19.41-12.64,36.38-28.1,52.11-45q1.9-2,3.93-4c.25-.24.76-.21,1.4-.36,5.51,12.64,10.76,25.43,16.59,38,17,36.62,37.27,71.22,65,101,21.91,23.47,42.3,36.1,70,43.7C628.62,537,554.48,561,476.3,571.56,397.8,582.2,319.71,575.23,239.36,568.07Z"/><path class="cls-2" d="M763.7,315.33c1.52-5.81.87-10.45-2.24-15.08-7.36-11-15.48-21.62-21.33-33.37-5.18-10.42-8-22.09-11.33-33.35-1.36-4.52,3.48-8,7.92-5.06,7.16,4.71,14.46,9.9,19.9,16.4,13.42,16,17.76,35,14.54,55.67-.73,4.66-1.58,9.3-2.18,14-1.44,11.07,7.11,17.87,11.54,26.41a66.53,66.53,0,0,0,6.08,9.29c1,1.27,2.65,2,4,3,.36-1.68,1.27-3.45,1-5-.8-4.26-2.15-8.41-3.21-12.63-3.24-12.9-2.11-25.78.56-38.57.35-1.69,2.21-4,3.67-4.24s4.17,1.32,4.83,2.78c2.68,5.91,5.92,11.92,6.86,18.21,1.84,12.28.34,24.39-6.75,35.18-4.26,6.48-3.95,13.33-.58,19.84a276.57,276.57,0,0,1,22,57.73c.52,2,1.41,4.07,1.28,6.05-.15,2.33-1.23,4.61-1.9,6.91-1.56-1.71-3.75-3.17-4.57-5.18-7.65-18.73-14.59-37.77-22.71-56.29-6.83-15.58-21.16-20.42-36.71-23a67.81,67.81,0,0,1-17.64-5s-9.16-3.31-22.44-13.11c-2.42-1.78-5.08-3.89-4.69-5.92.45-2.27,4.51-3.24,6.39-3.67,5.09-1.17,20.92-2.89,33.44,7.34,5.65,4.61,9.91,10.87,15,16.19,3.69,3.85,8,6.64,15.34,5.91-6-8.64-10.84-16.49-16.54-23.66-9-11.32-18.45-22.25-27.93-33.16-1.31-1.5-4.46-3.25-5.73-2.66-6.77,3.14-15.29,5.41-19.42,10.86-17.85,23.5-39.42,39.79-69.72,42.16a16.53,16.53,0,0,1-6.11-.84c-4.3-1.38-4.69-4.06-1.55-8,15.7-19.55,36.1-31,60.54-36,8.18-1.66,16.12-4.54,24.09-7.12,1.19-.38,1.95-2.14,2.91-3.26-1.21-.61-2.38-1.65-3.63-1.77-10.16-1-20.12-2-30.35,1.27-26.41,8.53-52.94,6.2-79.3-.87-9.15-2.45-18.39-4.63-27.42-7.47-2.59-.81-4.61-3.48-6.89-5.3,2.15-2.24,3.9-5.7,6.5-6.53,27.33-8.79,55.3-12.06,83.49-5.49,10.4,2.43,19.94,8.35,30.12,11.95,7.2,2.56,14.81,3.95,22.27,5.7.63.14,2.26-1.05,2.21-1.48-.17-1.47-.44-3.4-1.44-4.24a383.28,383.28,0,0,0-60.72-41.5c-6.4-3.54-13.24-7.9-20.15-8.44-6.34-.51-13.43,2.85-19.51,5.86-12,5.94-23.1,13.56-35.2,19.13-18.31,8.43-38,7.81-57.58,6.26-2.1-.16-4.85-1.67-5.79-3.38-.61-1.09,1.13-4.09,2.52-5.59,13.87-15,31.5-21.93,51.48-23.9a144.63,144.63,0,0,1,43.64,1.94c2.75.56,6.08-1.7,10.5-3.08-2-1.94-3-3.71-4.42-4.1-17.43-4.85-34.73-10.49-52.47-13.76-7.75-1.44-16.45,1.86-24.65,3.38-9.45,1.75-15.74,7.35-21.14,15.49C511.32,245.88,494.27,255,475.67,261c-10.34,3.32-21.12,5.25-31.71,7.76a16.35,16.35,0,0,1-3,.17c-2.65-.07-8.43-.77-9.36-3.32-.79-2.12,2-5.06,5.49-8.21,11.72-10.54,19.84-14.16,19.84-14.16a225.34,225.34,0,0,1,63.58-27.36,127.9,127.9,0,0,0,24.43-9.1,14.89,14.89,0,0,0-3.43-1.48,234.67,234.67,0,0,0-73.87-.09c-13.56,2.21-24.12,12.61-31.27,25.41-8.14,14.58-15.31,30-28.61,40.93a201.31,201.31,0,0,1-21.83,15.22c-4.74,2.94-8.27,0-7.89-5.83.84-13.05,7.76-23.5,15.24-33.35,11.64-15.31,26.52-26.48,45.31-31.92a10.28,10.28,0,0,0,4.2-2.41,3.55,3.55,0,0,0,.7-3.26c-.35-.7-2.18-1.23-3.11-1-16.45,4.71-32.87,9.54-49.29,14.38-1.57.46-3,1.28-4.6,1.81-14,4.7-18.62,11.95-19.42,27-1.19,22.31-6.23,43.64-19,62.57-3.57,5.3-6.59,11-10.35,16.15-1.55,2.13-4.37,3.33-6.62,5-1.36-2.38-3.45-4.62-4-7.17-5.89-28.78,5.47-52.1,23.69-73.09,3-3.41,6.94-5.94,9.85-9.4,2.13-2.54,3.28-5.91,4.87-8.91l-1.94-1.65c-4.38,2-9,3.68-13.09,6.12-9.74,5.77-20,11-28.61,18.2-5.41,4.5-8.25,12.08-12.2,18.31-.44.69-.44,1.67-.92,2.29-6.81,8.76-3.84,18.15-2.47,27.73.91,6.4.3,13.15-.44,19.65-1.77,15.54-3.06,31.31-9.84,45.7,0,0-5.44,17.88-15.58,28.65-1.79,1.9-4.37,4.21-6.6,3.58-2.69-.77-3.53-5.45-3.83-7.18-5.37-30.08,17-83.09,17-83.09,6.63-13.12,12.06-26.84,18.49-41.31-2.09.64-4.15.69-5.38,1.73-18.12,15.41-34.8,32.28-48.83,51.51-3.1,4.27-4.36,9.36-6.2,16-5.29,19.24-2.7,36.34.52,56.28,1.86,11.5,2.11,8.62,3.81,19.47,3.47,22.16,3,37.79,1.91,48.64h0c0,.1-3.67,19.66-11,32.32-.64,1.11-1.89,3.15-3.64,3.19-1.14,0-2.34-.68-3.45-2.31a82.79,82.79,0,0,1-6.45-11.95c-10.61-23.14-11.95-47.22-5.14-71.41,3.08-10.94,8.88-21.11,13.45-31.63.33-.75,1.05-1.47,1.05-2.21.07-10.53,0-21.07,0-32-.71.33-2.42.55-3,1.46-9.88,16.64-20.65,33.11-24.89,52.15-2.09,9.35.39,19.64,0,29.47a289.47,289.47,0,0,1-3,33.3s-4.92,32.59-25.2,68.8c-1.69,3-4.9,8.47-8.4,8.13-2.94-.3-4.93-4.57-6.38-8.8-6.05-17.64-3.56-37.72-3.6-40.55-.32-21.86,5.48-42.55,15.48-61.91,3.29-6.37,7-13.12,12.26-17.78,10-8.9,12.64-21.55,18.81-32.36,9.17-16.08,18.18-32.26,27.3-48.37,1.39-2.45,3-4.78,4.5-7.16l-1.1-1.89c-2.28.93-4.84,1.47-6.79,2.85-13.74,9.71-23.71,22.88-33.35,36.41-12.27,17.2-25.48,33.74-42.21,46.84-9.07,7.1-19.17,12.94-29,19-5.22,3.23-9.47.55-8.62-5.8.72-5.43,2.78-10.79,4.9-15.91,10.91-26.39,29.43-46.51,53.83-60.57,9.77-5.63,21.71-7.51,32.66-11.12,1.88-.62,3.94-1,5.56-2.08,10.34-6.7,20.59-13.53,30.84-20.37,2.58-1.72,5.36-3.29,7.51-5.47,8.41-8.53,16.63-17.25,24.84-26,.74-.79.92-2.12,1.65-3.9-7.4-2-12.94,1.69-18.23,4.66-17.43,9.8-34.65,20-51.88,30.14-10.75,6.35-22.8,8-34.77,9.85-2,.3-5.25-.83-6-2.31-.91-1.71-.51-5.07.68-6.77a95.41,95.41,0,0,1,11.81-14.35c19.46-18.55,43-26.93,69.7-26.89,3.24,0,6.46,1.21,9.72,1.46a52.07,52.07,0,0,0,9.75-.16c5.31-.64,10.59-1.56,15.84-2.58a16.63,16.63,0,0,0,6.28-2.25c12-8.45,23.85-17.07,35.71-25.7a24.36,24.36,0,0,0,3-3.16l-.74-1.52c-2.47.29-5,.91-7.43.81-15.53-.63-30.22,3.66-44.78,8a148.82,148.82,0,0,1-57.37,6c-3.48-.32-7.16.37-10.45-.53a13.19,13.19,0,0,1-7.17-5c-.64-1,1.67-4.68,3.41-6.33,18.69-17.81,41.31-24.7,66.4-20.72,12.84,2,25,8.15,37.71,11.23,6.81,1.65,14.3.24,21.37,1.13,15,1.87,25.88-8.12,38.61-12.73,1-.35,1.45-2.15,2.15-3.28-1.74-.63-3.55-1.93-5.21-1.77-10.68,1-21.4,3.79-31.95,3.22-13.64-.74-27.15-4-40.68-6.35a36,36,0,0,1-9.39-3c-2.06-1-5.26-3.29-5.05-4.49.39-2.2,2.58-5.2,4.63-5.8,9.39-2.79,18.9-6.17,28.55-6.9,18.75-1.42,35.29,5.27,51,15.71,8.12,5.4,18.47,6.06,28.48,3.37,16.33-4.4,32.72-8.57,49-13,1.6-.44,2.84-2.19,4.24-3.33-1.64-.67-3.25-1.85-4.92-1.93-17.05-.84-34.31-.19-51.12-2.63-13.27-1.92-26-7.56-39-11.57-.38-.12-.68-.47-1.06-.63-3.85-1.65-10-2.32-8.43-7.81.88-3.13,5.85-5.83,9.54-7.29,12.26-4.86,25.25-4.26,38-3,22.86,2.19,43.08,10.19,60.82,25.76,5.86,5.13,16.44,5.89,25,6.65,10,.88,20.11-.38,30.17-.86,1.19-.06,2.35-1,3.52-1.56-1.14-1.5-2-3.86-3.45-4.36-8.38-2.87-17-5-25.35-7.91C458.88,172,438,160.68,418.24,147.32c-5.12-3.46-4.81-7.58,1.27-9a85.73,85.73,0,0,1,20.63-1.91c19.89.11,38.44,5.39,54.32,17.53,10.27,7.86,18.53,18.08,22.46,30.49,1.94,6.13,5.38,7.8,10.42,8.58q20.11,3.14,40.28,5.91c.93.13,2-.79,3-1.22-.66-1.17-1-3-2-3.39-27.39-10.94-45.55-32.32-62.26-55.23-2.33-3.19-3.23-7.43-4.79-11.18,4.09-.48,8.48-2.15,12.23-1.23,25.41,6.27,45.75,19.58,57,44.11,3.26,7.1,4.56,15.16,8.31,21.93,2.48,4.48,7.11,9.21,11.8,10.8,21.31,7.19,42.82,13.73,62.74,24.45.29.16.79-.08,1.46-.17,2.43-3.54.11-5.52-2.64-7.27q-14.65-9.3-29.36-18.54c-13.48-8.5-23.94-20.16-33.8-32.42a53.56,53.56,0,0,1-6.31-9.92c-1.09-2.22-2.23-6.63-1.44-7.14,2.31-1.5,5.87-2.69,8.41-2,25,6.73,43.82,21.73,56.34,44.33,3.58,6.46,5.53,13.82,9,20.35,5.34,10,11.32,19.61,21.43,25.8,6.87,4.2,13.49,8.81,20.25,13.17.8.51,1.85.62,5,1.62-1.62-3.88-2-6.71-3.63-8.39a147.83,147.83,0,0,1-35.57-61.75c-.81-2.82.28-6.19.48-9.3,3.06.23,6.8-.6,9,.87,17.7,11.55,39,36.89,35.41,63.4-.49,3.64-1.1,7.28-1.28,10.94-.28,5.48,2,9.8,6,13.7,16,15.84,31.82,31.89,47.73,47.83A24.91,24.91,0,0,0,763.7,315.33Z"/><path class="cls-2" d="M794.39,461.25c-12.33,5.71-23.57,11.42-35.2,16.19-14.34,5.89-28.91,11.26-43.59,16.24a16.94,16.94,0,0,1-11.15-.73c-45.39-19.89-79-53.1-105.26-94.35C585.11,376.51,574,353,564.87,328.43c-.49-1.31-.89-2.66-1.5-4.51,36.9,25.91,71.94,53.7,110,76.35C711.69,423,753,440.68,794.39,461.25Z"/><path class="cls-1" d="M375.07,752.59c2.52-8.59,4.54-16.59,7.4-24.27.56-1.5,4.34-2.39,6.71-2.54,29.11-1.9,58.34-2.68,87.35-5.58,43.33-4.34,85.8-13.78,127.86-24.94,19-5,37.82-10.77,56.73-16.17,1.89-.54,3.82-1,7-1.77-3.29,11.07-6,21-9.36,30.65-.66,1.86-4.06,3.22-6.46,3.94a1026.31,1026.31,0,0,1-126.87,29.73c-47.32,7.84-94.89,12-142.87,11.27C380.32,752.88,378.1,752.72,375.07,752.59Z"/></g></g></svg>